<?xml version="1.0" standalone="no"?>
<!DOCTYPE svg PUBLIC "-//W3C//DTD SVG 20010904//EN"
 "http://www.w3.org/TR/2001/REC-SVG-20010904/DTD/svg10.dtd">
<svg version="1.0" xmlns="http://www.w3.org/2000/svg"
 width="16.000000pt" height="16.000000pt" viewBox="0 0 16.000000 16.000000"
 preserveAspectRatio="xMidYMid meet">
<metadata>
Created by potrace 1.11, written by Peter Selinger 2001-2013
</metadata>
<g transform="translate(0.000000,16.000000) scale(0.006154,-0.006154)"
fill="#000000" stroke="none">
<path d="M1215 1980 c-4 -6 -11 -8 -16 -5 -5 4 -9 1 -9 -5 0 -6 -6 -10 -12 -8
-7 1 -30 -14 -51 -35 -21 -20 -36 -37 -32 -37 4 0 -3 -15 -17 -32 -16 -22 -23
-45 -22 -70 1 -43 -16 -50 -43 -19 -13 16 -21 17 -42 9 -14 -5 -27 -9 -28 -9
-2 1 -3 -2 -2 -6 0 -3 -6 -10 -15 -15 -9 -5 -14 -13 -11 -19 4 -5 2 -9 -3 -9
-6 0 -8 -9 -5 -20 6 -23 -21 -38 -46 -24 -26 15 -191 10 -202 -7 -5 -8 -9 -10
-9 -5 0 5 -7 2 -17 -5 -9 -8 -19 -13 -22 -11 -3 1 -13 -4 -23 -12 -9 -8 -18
-12 -21 -10 -2 2 -10 -3 -18 -13 -12 -14 -12 -16 0 -8 10 5 12 4 7 -4 -4 -6
-11 -9 -16 -6 -4 3 -13 -2 -20 -10 -7 -8 -9 -15 -4 -15 5 0 -2 -7 -14 -16 -12
-8 -20 -19 -17 -24 3 -4 1 -10 -4 -12 -5 -1 -11 -10 -13 -18 -2 -8 -6 -17 -10
-20 -4 -3 -8 -22 -10 -43 -1 -20 -6 -37 -11 -37 -5 0 -4 -6 2 -14 16 -19 -11
-41 -35 -28 -18 10 -74 -6 -74 -21 0 -4 -5 -5 -12 -1 -7 4 -8 3 -4 -5 4 -6 0
-14 -11 -18 -25 -9 -53 -39 -53 -58 0 -9 -7 -18 -15 -21 -8 -4 -12 -10 -9 -15
3 -5 2 -15 -3 -21 -16 -27 -9 -70 18 -98 15 -15 25 -31 22 -34 -4 -3 3 -6 15
-6 11 0 24 -5 27 -10 4 -6 11 -8 16 -5 5 4 9 1 9 -4 0 -6 3 -10 8 -9 4 0 14
-1 22 -5 8 -3 29 -9 45 -13 41 -10 45 -11 48 -14 4 -3 41 -11 72 -14 17 -2 41
-7 55 -11 14 -4 41 -8 60 -10 19 -2 60 -7 90 -10 30 -4 61 -7 67 -8 7 0 20
-25 29 -56 21 -72 76 -161 123 -199 69 -56 110 -72 182 -72 164 0 261 70 328
237 25 62 31 69 67 81 21 7 55 14 74 16 20 1 41 5 47 9 6 4 22 7 34 7 13 0 38
2 54 5 17 3 44 6 61 8 17 2 35 6 40 10 5 3 24 4 42 3 17 -1 33 2 35 7 1 5 18
10 37 12 48 5 97 14 145 27 22 5 47 12 55 13 8 2 16 4 18 5 1 2 5 3 10 4 29 7
52 19 52 27 0 5 3 8 8 6 4 -1 17 8 30 21 12 12 19 22 15 22 -5 0 0 5 10 11 9
6 15 14 12 19 -3 4 1 10 9 13 15 6 15 97 1 132 -9 21 -65 81 -65 70 0 -4 -7
-2 -16 6 -19 15 -113 19 -133 5 -7 -6 -24 -12 -38 -14 -19 -2 -24 1 -21 15 2
10 8 17 14 16 5 -1 10 13 11 30 1 17 6 33 10 36 5 3 8 13 8 21 0 8 10 19 23
25 12 5 22 13 22 17 0 5 10 8 22 8 27 0 67 44 63 68 -2 9 -4 20 -4 25 -1 4 -8
7 -16 7 -15 0 -19 11 -16 38 4 23 -31 52 -61 52 -15 0 -28 -4 -28 -9 0 -8 -36
-25 -50 -23 -3 0 -13 -4 -22 -9 -12 -7 -18 -6 -18 1 0 6 -4 8 -10 5 -5 -3 -10
-1 -10 4 0 6 -6 10 -12 9 -7 -2 -12 4 -10 12 2 8 1 12 -3 8 -10 -9 -66 12 -59
23 3 5 -2 6 -10 3 -9 -3 -16 -2 -16 2 0 5 -10 10 -22 10 -13 1 -39 3 -58 4
-32 3 -74 -4 -110 -17 -8 -4 -18 -5 -22 -5 -5 1 -8 -2 -8 -8 0 -20 -29 -10
-36 13 -3 12 -13 30 -22 40 -8 9 -11 17 -6 17 5 0 -2 8 -16 17 -28 20 -56 21
-87 5 -35 -19 -53 -15 -53 13 0 29 -19 74 -41 95 -18 17 -14 16 -92 23 -31 4
-61 9 -66 12 -5 3 -12 1 -16 -5z"/>
</g>
</svg>
