<?xml version="1.0" standalone="no"?>
<!DOCTYPE svg PUBLIC "-//W3C//DTD SVG 20010904//EN"
 "http://www.w3.org/TR/2001/REC-SVG-20010904/DTD/svg10.dtd">
<svg version="1.0" xmlns="http://www.w3.org/2000/svg"
 width="16.000000pt" height="16.000000pt" viewBox="0 0 16.000000 16.000000"
 preserveAspectRatio="xMidYMid meet">
<metadata>
Created by potrace 1.11, written by Peter Selinger 2001-2013
</metadata>
<g transform="translate(0.000000,16.000000) scale(0.005298,-0.005298)"
fill="#000000" stroke="none">
<path d="M2048 2805 c-2 -1 -39 -5 -83 -9 -218 -17 -412 -101 -574 -250 -18
-17 -63 -69 -100 -116 l-66 -86 -45 13 c-106 31 -244 18 -410 -37 -164 -55
-216 -66 -292 -64 -83 4 -128 16 -224 59 -41 19 -74 31 -74 27 0 -4 30 -45 66
-92 180 -234 379 -420 546 -512 49 -27 78 -49 78 -60 0 -25 -15 -30 -54 -19
-48 13 -52 3 -14 -29 32 -27 32 -29 18 -56 -80 -156 -196 -304 -315 -400 -111
-90 -192 -125 -400 -173 -49 -12 -93 -25 -98 -30 -19 -19 365 -214 623 -316
80 -31 146 -58 148 -60 4 -3 -144 -162 -226 -241 -62 -61 -70 -73 -58 -84 25
-20 53 6 310 283 l25 27 138 -39 c106 -30 131 -40 112 -45 -40 -12 -55 -19
-289 -134 -124 -61 -237 -114 -252 -117 -30 -8 -33 -12 -19 -34 14 -22 47 -9
306 119 232 115 324 151 382 151 16 0 77 -6 137 -14 157 -20 351 -15 486 14
213 46 478 199 643 373 130 137 225 328 252 506 3 19 9 64 15 100 8 58 6 528
-3 637 -3 40 -2 42 37 57 87 34 235 101 236 107 0 5 -103 24 -200 35 -82 10
-87 16 -44 49 46 35 215 207 209 213 -3 3 -212 -44 -281 -63 -18 -6 -24 3 -48
59 -17 41 -43 79 -67 100 -57 52 -162 102 -254 120 -16 4 -41 9 -55 11 -14 3
-61 8 -105 11 -44 3 -88 7 -97 8 -9 2 -18 3 -20 1z"/>
</g>
</svg>
